<svg data-v-fde0c5aa="" xmlns="http://www.w3.org/2000/svg" viewBox="0 0 300 300" class="iconAbove"><!----><defs data-v-fde0c5aa=""><!----></defs><rect data-v-fde0c5aa="" fill="transparent" x="0" y="0" width="300px" height="300px" class="logo-background-square"></rect><defs data-v-fde0c5aa=""><!----></defs><g data-v-fde0c5aa="" id="d211ef59-0a8d-4257-91a6-60f70e3f6b2f" fill="#656566"><path d=""></path></g><defs data-v-fde0c5aa=""><!----></defs><g data-v-fde0c5aa="" id="ec3cb35c-bb0e-47d8-8374-70a0184b940b" stroke="none" fill="#042963"><path d="M56.2 50.1h7v4h-7zM56.2 58.9h12v4h-12zM24.2 50.1h7v4h-7zM24.2 58.9h12v4h-12z"></path><path d="M52.5 12.9h-19c-4.4 0-8 3.6-8 8v20h-2c-4.4 0-8 3.6-8 8v14c0 5 4 9 9 9h49c5 0 9-4 9-9v-14c0-4.4-3.6-8-8-8h-14v-20c0-4.4-3.6-8-8-8zm-23 8c0-2.2 1.8-4 4-4h19c2.2 0 4 1.8 4 4v20h-27v-20zm-10 42v-14c0-2.2 1.8-4 4-4h24v23h-23c-2.8 0-5-2.3-5-5zm59-14v14c0 2.8-2.2 5-5 5h-22v-23h23c2.2 0 4 1.8 4 4z"></path><path d="M34.2 22.1h7v4h-7zM34.2 30.9h12v4h-12zM90.4 79.4c-.3-.8-1-1.3-1.9-1.3h-77c-.8 0-1.6.5-1.9 1.3l-2 5c-.4 1 .1 2.2 1.1 2.6 1 .4 2.2-.1 2.6-1.1l1.5-3.7h74.3l1.5 3.7c.3.8 1.1 1.3 1.9 1.3.2 0 .5 0 .7-.1 1-.4 1.5-1.6 1.1-2.6l-1.9-5.1z"></path></g><!----></svg>